<?xml version="1.0" encoding="UTF-8"?>
<svg width="139px" height="29px" viewBox="0 0 139 29" version="1.1" xmlns="http://www.w3.org/2000/svg" xmlns:xlink="http://www.w3.org/1999/xlink">
    <!-- Generator: sketchtool 54.1 (76490) - https://sketchapp.com -->
    <title>2DD51C54-FAA3-4B8C-BA6F-AB6216921F2B</title>
    <desc>Created with sketchtool.</desc>
    <defs>
        <polygon id="path-1" points="0.155284381 0.0368524222 8.47322667 0.0368524222 8.47322667 16.263401 0.155284381 16.263401"></polygon>
        <polygon id="path-3" points="0.166741313 0.106096866 14.9095444 0.106096866 14.9095444 29.0142017 0.166741313 29.0142017"></polygon>
    </defs>
    <g id="Page-1" stroke="none" stroke-width="1" fill="none" fill-rule="evenodd">
        <g id="Homepage" transform="translate(-95.000000, -36.000000)">
            <g id="Group-59" transform="translate(95.000000, 36.000000)">
                <path d="M46.5142479,20.4749711 C43.7542344,20.4749711 41.5920882,18.2894205 41.5920882,15.4997272 C41.5920882,12.7097613 43.7542344,10.5244834 46.5142479,10.5244834 C49.2585208,10.5244834 51.4081831,12.7097613 51.4081831,15.4997272 C51.4081831,18.2894205 49.2585208,20.4749711 46.5142479,20.4749711 L46.5142479,20.4749711 Z M51.4081831,8.70441856 C50.0224773,7.61014311 48.2815249,7 46.4010792,7 C41.6903306,7 38,10.7331376 38,15.4997272 C38,20.2660442 41.6903306,24 46.4010792,24 C48.2815249,24 50.0224773,23.3898569 51.4081831,22.2953087 L51.4081831,23.6871551 L55,23.6871551 L55,7.31284495 L51.4081831,7.31284495 L51.4081831,8.70441856 Z" id="Fill-1" fill="#1C2533"></path>
                <path d="M67.4653425,15.2315752 C67.4653425,18.0209379 66.0642389,19.6201272 63.6213925,19.6201272 C60.9599685,19.6201272 60.5629218,17.673379 60.5629218,16.5127572 L60.5629218,7 L57,7 L57,16.5127572 C57,20.3926546 59.6156627,23 63.5091426,23 C65.0507604,23 66.3832221,22.6139978 67.4653425,21.8668377 L67.4653425,22.7000376 L71,22.7000376 L71,7 L67.4653425,7 L67.4653425,15.2315752 Z" id="Fill-3" fill="#1C2533"></path>
                <polygon id="Fill-5" fill="#1C2533" points="85.7149831 9.31069061 85.7149831 7 73.2850169 7 73.2850169 10.4716327 80.5253224 10.4716327 73 20.6882433 73 23 86 23 86 19.5283673 78.2137311 19.5283673"></polygon>
                <path d="M103.888963,7 C102.073241,7 100.479788,7.6791651 99.32554,8.90778183 C98.2936195,7.67864206 96.7577318,7 94.9164254,7 C93.6265249,7 92.4682794,7.33866723 91.499788,7.98200422 L91.499788,7.29996241 L88,7.29996241 L88,23 L91.499788,23 L91.499788,14.359409 C91.499788,11.8299962 92.6844177,10.3793498 94.7498577,10.3793498 C96.8163636,10.3793498 97.2502393,11.9806312 97.2502393,13.3237933 L97.2502393,23 L100.749761,23 L100.749761,14.359409 C100.749761,11.792599 101.854704,10.3793498 103.861246,10.3793498 C105.563169,10.3793498 106.500212,11.4249032 106.500212,13.3237933 L106.500212,23 L110,23 L110,13.3237933 C110,9.48233929 107.601158,7 103.888963,7" id="Fill-7" fill="#1C2533"></path>
                <path d="M120.514248,20.4749711 C117.754234,20.4749711 115.592088,18.2894205 115.592088,15.4997272 C115.592088,12.7097613 117.754234,10.5244834 120.514248,10.5244834 C123.258249,10.5244834 125.407912,12.7097613 125.407912,15.4997272 C125.407912,18.2894205 123.258249,20.4749711 120.514248,20.4749711 M120.514248,7 C115.739995,7 112,10.7331376 112,15.4997272 C112,20.2660442 115.739995,24 120.514248,24 C125.272489,24 129,20.2660442 129,15.4997272 C129,10.7331376 125.272489,7 120.514248,7" id="Fill-9" fill="#1C2533"></path>
                <g id="Group-13" transform="translate(130.000000, 7.000000)">
                    <mask id="mask-2" fill="white">
                        <use xlink:href="#path-1"></use>
                    </mask>
                    <g id="Clip-12"></g>
                    <path d="M7.39462533,0.0368524222 C5.95590914,0.0368524222 4.72474724,0.379740171 3.73219105,1.04575423 L3.73219105,0.231529345 L0.155284381,0.231529345 L0.155284381,16.263401 L3.73219105,16.263401 L3.73219105,7.46795632 C3.73219105,3.8753793 6.29338914,3.48762773 7.39462533,3.48762773 L8.4732539,3.48762773 L8.4732539,0.0368524222 L7.39462533,0.0368524222 Z" id="Fill-11" fill="#1C2533" mask="url(#mask-2)"></path>
                </g>
                <g id="Group-24">
                    <g id="Group-16" transform="translate(14.576018, 0.000000)">
                        <mask id="mask-4" fill="white">
                            <use xlink:href="#path-3"></use>
                        </mask>
                        <g id="Clip-15"></g>
                        <polygon id="Fill-14" fill="#FF6F3A" mask="url(#mask-4)" points="14.9095444 29.0142017 0.166741313 14.5601276 14.9095444 0.106053561"></polygon>
                    </g>
                    <polygon id="Fill-17" fill="#DC194E" points="29.485562 29.0142017 14.7427589 14.5601276 29.485562 14.5601276"></polygon>
                    <polygon id="Fill-19" fill="#FFAA26" points="-1.9468871e-12 0.106096866 14.7428031 14.5601709 29.4856062 0.106096866"></polygon>
                    <polygon id="Fill-21" fill="#FF953D" points="-9.64561764e-13 0.106096866 14.7428031 14.5601709 14.7428031 0.106096866"></polygon>
                    <polygon id="Fill-23" fill="#780045" points="9.60781112 19.5945538 19.8777509 19.5945538 14.742781 14.5601493"></polygon>
                    <polygon id="Fill-25" fill="#9E0053" points="9.60781112 19.5945538 17.055737 19.5945538 14.742781 14.5601493"></polygon>
                    <polygon id="Fill-27" fill="#780045" points="9.60781112 19.5945538 14.742781 14.5601493 9.60781112 9.52574473"></polygon>
                    <polygon id="Fill-29" fill="#BD0B46" points="9.60781112 19.5945538 14.742781 14.5601493 9.60781112 12.7820524"></polygon>
                </g>
            </g>
        </g>
    </g>
</svg>